<svg width="42" height="42" viewBox="0 0 42 42" fill="none" xmlns="http://www.w3.org/2000/svg">
<path d="M35.7292 6.27085C32.3109 2.83023 27.7993 0.690048 22.9721 0.219275C18.145 -0.251498 13.3049 0.976641 9.28622 3.69196C5.26755 6.40728 2.32216 10.4396 0.957844 15.0938C-0.406472 19.748 -0.104216 24.7323 1.8125 29.1875C2.01227 29.6016 2.07782 30.0677 2 30.5209L0.166669 39.3334C0.0960358 39.6712 0.110459 40.0214 0.208643 40.3523C0.306826 40.6832 0.485693 40.9845 0.729169 41.2292C0.928761 41.4273 1.16641 41.583 1.42778 41.6868C1.68916 41.7907 1.96885 41.8405 2.25 41.8334H2.66667L11.5833 40.0417C12.0365 39.9872 12.4961 40.0518 12.9167 40.2292C17.3719 42.1459 22.3562 42.4482 27.0104 41.0838C31.6646 39.7195 35.6969 36.7741 38.4122 32.7555C41.1276 28.7368 42.3557 23.8967 41.8849 19.0696C41.4141 14.2424 39.274 9.73083 35.8333 6.31252L35.7292 6.27085ZM12.6667 23.0834C12.2546 23.0834 11.8518 22.9612 11.5092 22.7323C11.1666 22.5033 10.8996 22.178 10.7419 21.7973C10.5842 21.4166 10.543 20.9977 10.6234 20.5936C10.7038 20.1895 10.9022 19.8182 11.1935 19.5269C11.4849 19.2355 11.8561 19.0371 12.2602 18.9567C12.6644 18.8763 13.0832 18.9176 13.4639 19.0753C13.8446 19.233 14.17 19.5 14.3989 19.8426C14.6278 20.1852 14.75 20.588 14.75 21C14.75 21.5526 14.5305 22.0825 14.1398 22.4732C13.7491 22.8639 13.2192 23.0834 12.6667 23.0834ZM21 23.0834C20.588 23.0834 20.1852 22.9612 19.8426 22.7323C19.5 22.5033 19.2329 22.178 19.0753 21.7973C18.9176 21.4166 18.8763 20.9977 18.9567 20.5936C19.0371 20.1895 19.2355 19.8182 19.5269 19.5269C19.8182 19.2355 20.1894 19.0371 20.5936 18.9567C20.9977 18.8763 21.4166 18.9176 21.7973 19.0753C22.1779 19.233 22.5033 19.5 22.7322 19.8426C22.9612 20.1852 23.0833 20.588 23.0833 21C23.0833 21.5526 22.8638 22.0825 22.4731 22.4732C22.0824 22.8639 21.5525 23.0834 21 23.0834ZM29.3333 23.0834C28.9213 23.0834 28.5185 22.9612 28.1759 22.7323C27.8333 22.5033 27.5663 22.178 27.4086 21.7973C27.2509 21.4166 27.2096 20.9977 27.29 20.5936C27.3704 20.1895 27.5688 19.8182 27.8602 19.5269C28.1516 19.2355 28.5228 19.0371 28.9269 18.9567C29.331 18.8763 29.7499 18.9176 30.1306 19.0753C30.5113 19.233 30.8366 19.5 31.0656 19.8426C31.2945 20.1852 31.4167 20.588 31.4167 21C31.4167 21.5526 31.1972 22.0825 30.8065 22.4732C30.4158 22.8639 29.8859 23.0834 29.3333 23.0834Z" fill="#0069FF"/>
</svg>
