<svg width="29" height="28" viewBox="0 0 29 28" fill="none" xmlns="http://www.w3.org/2000/svg">
<path d="M27.0063 12.9938C26.8251 12.6875 26.5532 12.4688 26.236 12.2938L5.34695 1.00627C4.98445 0.831266 4.57663 0.743766 4.16882 0.787516C3.76101 0.831266 3.39851 0.962516 3.08132 1.22502C2.76413 1.48752 2.53757 1.83752 2.44695 2.18752C2.31101 2.58127 2.35632 2.97502 2.49226 3.36877L6.38913 14L2.49226 24.6313C2.35632 25.025 2.35632 25.4188 2.44695 25.7688C2.53757 26.1625 2.76413 26.4688 3.08132 26.7313C3.39851 26.9938 3.76101 27.125 4.16882 27.1688C4.21413 27.1688 4.30476 27.1688 4.35007 27.1688C4.66726 27.1688 5.02976 27.0813 5.34695 26.9063L26.236 15.6188C26.5532 15.4438 26.8251 15.225 27.0063 14.9188C27.1876 14.6125 27.2782 14.2625 27.2782 13.9563C27.2782 13.65 27.1876 13.3 27.0063 12.9938ZM4.4407 2.75627L23.3813 12.9938H8.20163L4.4407 2.75627ZM4.4407 25.2438L8.24695 15.0063H23.4266L4.4407 25.2438Z" fill="white"/>
</svg>
